<?xml version="1.0" encoding="utf-8"?><svg width="35" height="70" viewBox="0 0 35 70" xmlns="http://www.w3.org/2000/svg" xmlns:xlink="http://www.w3.org/1999/xlink"><svg id="calendar" viewBox="-31.27 -31.27 109.43 108.63" width="35" height="34.74" xmlns="http://www.w3.org/2000/svg"><style>.ast0{fill:#898989}</style><path class="ast0" d="M34.8 3.2C34.3 1.3 32.6 0 30.6 0c-.6 0-1 .5-1 1.1s.5 1.1 1 1.1c1.2 0 2.2 1 2.2 2.1s-1 2.1-2.2 2.1c-.6 0-1 .5-1 1.1s.5 1.1 1 1.1c1.9 0 3.6-1.3 4.1-3.2h10V12H2.1V5.3h13.3c.6 0 1.1-.5 1.1-1.1s-.5-1-1.1-1h-1.1c.4-.7 1.1-1.1 1.9-1.1 1.2 0 2.1 1 2.1 2.1s-1 2.1-2.1 2.1c-.6 0-1.1.5-1.1 1.1s.5 1.1 1.1 1.1c2.3 0 4.2-1.9 4.2-4.2S18.6 0 16.2 0c-1.9 0-3.6 1.3-4.1 3.2H0v42.9h46.9V3.2H34.8zM2.1 44V14.1h42.7V44H2.1z"/><path class="ast0" d="M21.1 2.1c1.2 0 2.1 1 2.1 2.1s-1 2.1-2.1 2.1c-.6 0-1.1.5-1.1 1.1s.5 1.1 1.1 1.1c2.3 0 4.2-1.9 4.2-4.2S23.4 0 21.1 0c-.6 0-1.1.5-1.1 1.1s.5 1 1.1 1z"/><path class="ast0" d="M25.9 2.1c1.2 0 2.1 1 2.1 2.1s-1 2.1-2.1 2.1c-.6 0-1.1.5-1.1 1.1s.5 1.1 1.1 1.1c2.3 0 4.2-1.9 4.2-4.2S28.2 0 25.9 0c-.6 0-1.1.5-1.1 1.1s.5 1 1.1 1z"/><ellipse class="ast0" cx="17.9" cy="19.4" rx="1" ry="1.1"/><circle class="ast0" cx="23.4" cy="19.4" r="1.1"/><circle class="ast0" cx="29.1" cy="19.4" r="1.1"/><ellipse class="ast0" cx="34.6" cy="19.4" rx="1" ry="1.1"/><circle class="ast0" cx="40.2" cy="19.4" r="1.1"/><circle class="ast0" cx="6.6" cy="25.9" r="1"/><ellipse class="ast0" cx="12.2" cy="25.9" rx="1.1" ry="1"/><circle class="ast0" cx="17.9" cy="25.9" r="1"/><ellipse class="ast0" cx="23.4" cy="25.9" rx="1.1" ry="1"/><ellipse class="ast0" cx="29.1" cy="25.9" rx="1.1" ry="1"/><circle class="ast0" cx="34.6" cy="25.9" r="1"/><ellipse class="ast0" cx="40.2" cy="25.9" rx="1.1" ry="1"/><ellipse class="ast0" cx="6.6" cy="31.4" rx="1" ry="1.1"/><circle class="ast0" cx="12.2" cy="31.4" r="1.1"/><ellipse class="ast0" cx="17.9" cy="31.4" rx="1" ry="1.1"/><circle class="ast0" cx="23.4" cy="31.4" r="1.1"/><circle class="ast0" cx="29.1" cy="31.4" r="1.1"/><ellipse class="ast0" cx="34.6" cy="31.4" rx="1" ry="1.1"/><circle class="ast0" cx="40.2" cy="31.4" r="1.1"/><circle class="ast0" cx="6.6" cy="37.9" r="1"/><ellipse class="ast0" cx="12.2" cy="37.9" rx="1.1" ry="1"/><circle class="ast0" cx="17.9" cy="37.9" r="1"/><ellipse class="ast0" cx="23.4" cy="37.9" rx="1.1" ry="1"/><ellipse class="ast0" cx="29.1" cy="37.9" rx="1.1" ry="1"/></svg><svg width="32.85" height="35" viewBox="-200 -200 657 700" id="menu" y="34.74" xmlns="http://www.w3.org/2000/svg"><title>bars</title><path d="M257.143 225v21.429c0 5.859-4.855 10.714-10.714 10.714H10.715c-5.859 0-10.714-4.855-10.714-10.714V225c0-5.859 4.855-10.714 10.714-10.714h235.714c5.859 0 10.714 4.855 10.714 10.714zm0-85.714v21.429c0 5.859-4.855 10.714-10.714 10.714H10.715c-5.859 0-10.714-4.855-10.714-10.714v-21.429c0-5.859 4.855-10.714 10.714-10.714h235.714c5.859 0 10.714 4.855 10.714 10.714zm0-85.715V75c0 5.859-4.855 10.714-10.714 10.714H10.715C4.856 85.714.001 80.859.001 75V53.571c0-5.859 4.855-10.714 10.714-10.714h235.714c5.859 0 10.714 4.855 10.714 10.714z"/></svg></svg>