<?xml version="1.0" encoding="utf-8"?>
<!-- Generator: Adobe Illustrator 21.0.2, SVG Export Plug-In . SVG Version: 6.00 Build 0)  -->
<svg version="1.1" id="Layer_1" xmlns="http://www.w3.org/2000/svg" xmlns:xlink="http://www.w3.org/1999/xlink" x="0px" y="0px"
	 viewBox="0 0 46.9 46.1" style="enable-background:new 0 0 46.9 46.1;" xml:space="preserve">
<style type="text/css">
	.st0{fill:#898989;}
</style>
<g>
	<path class="st0" d="M34.8,3.2C34.3,1.3,32.6,0,30.6,0c-0.6,0-1,0.5-1,1.1s0.5,1.1,1,1.1c1.2,0,2.2,1,2.2,2.1s-1,2.1-2.2,2.1
		c-0.6,0-1,0.5-1,1.1s0.5,1.1,1,1.1c1.9,0,3.6-1.3,4.1-3.2h10V12H2.1V5.3h13.3c0.6,0,1.1-0.5,1.1-1.1S16,3.2,15.4,3.2h-1.1
		c0.4-0.7,1.1-1.1,1.9-1.1c1.2,0,2.1,1,2.1,2.1s-1,2.1-2.1,2.1c-0.6,0-1.1,0.5-1.1,1.1s0.5,1.1,1.1,1.1c2.3,0,4.2-1.9,4.2-4.2
		S18.6,0,16.2,0c-1.9,0-3.6,1.3-4.1,3.2H0v42.9h46.9V3.2H34.8z M2.1,44V14.1h42.7V44H2.1z"/>
	<path class="st0" d="M21.1,2.1c1.2,0,2.1,1,2.1,2.1s-1,2.1-2.1,2.1c-0.6,0-1.1,0.5-1.1,1.1s0.5,1.1,1.1,1.1c2.3,0,4.2-1.9,4.2-4.2
		S23.4,0,21.1,0C20.5,0,20,0.5,20,1.1S20.5,2.1,21.1,2.1z"/>
	<path class="st0" d="M25.9,2.1c1.2,0,2.1,1,2.1,2.1s-1,2.1-2.1,2.1c-0.6,0-1.1,0.5-1.1,1.1s0.5,1.1,1.1,1.1c2.3,0,4.2-1.9,4.2-4.2
		S28.2,0,25.9,0c-0.6,0-1.1,0.5-1.1,1.1S25.3,2.1,25.9,2.1z"/>
	<ellipse class="st0" cx="17.9" cy="19.4" rx="1" ry="1.1"/>
	<circle class="st0" cx="23.4" cy="19.4" r="1.1"/>
	<circle class="st0" cx="29.1" cy="19.4" r="1.1"/>
	<ellipse class="st0" cx="34.6" cy="19.4" rx="1" ry="1.1"/>
	<circle class="st0" cx="40.2" cy="19.4" r="1.1"/>
	<circle class="st0" cx="6.6" cy="25.9" r="1"/>
	<ellipse class="st0" cx="12.2" cy="25.9" rx="1.1" ry="1"/>
	<circle class="st0" cx="17.9" cy="25.9" r="1"/>
	<ellipse class="st0" cx="23.4" cy="25.9" rx="1.1" ry="1"/>
	<ellipse class="st0" cx="29.1" cy="25.9" rx="1.1" ry="1"/>
	<circle class="st0" cx="34.6" cy="25.9" r="1"/>
	<ellipse class="st0" cx="40.2" cy="25.9" rx="1.1" ry="1"/>
	<ellipse class="st0" cx="6.6" cy="31.4" rx="1" ry="1.1"/>
	<circle class="st0" cx="12.2" cy="31.4" r="1.1"/>
	<ellipse class="st0" cx="17.9" cy="31.4" rx="1" ry="1.1"/>
	<circle class="st0" cx="23.4" cy="31.4" r="1.1"/>
	<circle class="st0" cx="29.1" cy="31.4" r="1.1"/>
	<ellipse class="st0" cx="34.6" cy="31.4" rx="1" ry="1.1"/>
	<circle class="st0" cx="40.2" cy="31.4" r="1.1"/>
	<circle class="st0" cx="6.6" cy="37.9" r="1"/>
	<ellipse class="st0" cx="12.2" cy="37.9" rx="1.1" ry="1"/>
	<circle class="st0" cx="17.9" cy="37.9" r="1"/>
	<ellipse class="st0" cx="23.4" cy="37.9" rx="1.1" ry="1"/>
	<ellipse class="st0" cx="29.1" cy="37.9" rx="1.1" ry="1"/>
</g>
</svg>
