<?xml version="1.0" encoding="utf-8"?>
<!-- Generator: Adobe Illustrator 21.0.2, SVG Export Plug-In . SVG Version: 6.00 Build 0)  -->
<svg version="1.1" id="Layer_1" xmlns="http://www.w3.org/2000/svg" xmlns:xlink="http://www.w3.org/1999/xlink" x="0px" y="0px"
	 viewBox="0 0 464.6 76.5" style="enable-background:new 0 0 464.6 76.5;" xml:space="preserve">
<style type="text/css">
	.st0{fill:#EF4136;}
	.st1{fill:#FFFFFF;}
</style>
<g>
	<path class="st0" d="M453.2,76.5H11.3C5.1,76.5,0,71.4,0,65.1V11.3C0,5.1,5.1,0,11.3,0h441.9c6.3,0,11.3,5.1,11.3,11.3v53.8
		C464.6,71.4,459.5,76.5,453.2,76.5z"/>
	<g>
		<path class="st1" d="M22.9,20.2h30.5v9.3h-20V36h18.1v8.8H33.5v13.6H22.9V20.2z"/>
		<path class="st1" d="M59.7,20.2h30.7v9H70.2V35h18.3v8.3H70.2v6.1h20.5v9h-31V20.2z"/>
		<path class="st1" d="M98.3,20.2h10.6v38.2H98.3V20.2z"/>
		<path class="st1" d="M117.4,20.2h18.1c5.8,0,9.9,1.5,12.4,4.1c2.2,2.2,3.4,5.2,3.4,9.1c0,5.8-3.1,9.7-7.9,11.7l9.1,13.3h-12.2
			l-7.7-11.6H128v11.6h-10.6V20.2z M135,38.5c3.6,0,5.7-1.7,5.7-4.6c0-3-2.2-4.5-5.7-4.5H128v9.2H135z"/>
		<path class="st1" d="M158.3,20.2H169v38.2h-10.6V20.2z"/>
		<path class="st1" d="M177.5,20.2h9.9l15.7,20.2V20.2h10.5v38.2h-9.3l-16.3-20.9v20.9h-10.5V20.2z"/>
		<path class="st1" d="M220.3,39.3c0-11.1,8.7-19.9,20.6-19.9c6.7,0,11.5,2.1,15.5,5.6l-6.2,7.5c-2.7-2.3-5.5-3.6-9.2-3.6
			c-5.5,0-9.8,4.6-9.8,10.6c0,6.2,4.3,10.6,10.4,10.6c2.6,0,4.5-0.5,6.1-1.6v-4.6h-7.5v-7.7h17.6v17.2c-4,3.3-9.7,5.9-16.6,5.9
			C229.2,59.2,220.3,51,220.3,39.3z"/>
		<path class="st1" d="M281.4,20.2h19.6c4.8,0,8.2,1.2,10.4,3.4c1.5,1.5,2.5,3.5,2.5,6.3c0,4.4-2.5,7-5.9,8.5
			c4.6,1.5,7.6,4.1,7.6,9.4c0,6.5-5.3,10.5-14.5,10.5h-19.7V20.2z M298.3,35.4c3.2,0,5-1.1,5-3.4c0-2.1-1.6-3.3-4.8-3.3h-6.9v6.7
			H298.3z M299.9,49.9c3.2,0,5.1-1.3,5.1-3.6c0-2.1-1.6-3.4-5.2-3.4h-8.1v7H299.9z"/>
		<path class="st1" d="M322.1,20.2h18.1c5.8,0,9.9,1.5,12.4,4.1c2.2,2.2,3.4,5.2,3.4,9.1c0,5.8-3.1,9.7-7.9,11.7l9.1,13.3H345
			l-7.7-11.6h-4.6v11.6h-10.6V20.2z M339.6,38.5c3.6,0,5.7-1.7,5.7-4.6c0-3-2.2-4.5-5.7-4.5h-6.9v9.2H339.6z"/>
		<path class="st1" d="M362.1,41.7V20.2h10.7v21.2c0,5.5,2.8,8.1,7,8.1s7-2.5,7-7.9V20.2h10.7v21.2c0,12.3-7,17.7-17.9,17.7
			S362.1,53.6,362.1,41.7z"/>
		<path class="st1" d="M405.8,20.2h10.6v15.5l13.1-15.5h12.5l-14.5,16.4l14.9,21.8h-12.7l-9.6-14.2l-3.9,4.3v9.9h-10.6V20.2z"/>
	</g>
</g>
</svg>
